# xmcd
#
# Track frame offsets:
#	150
#	12680
#	26805
#	42177
#	59092
#	72360
#	92570
#	107450
#	121902
#	136700
#	152895
#	177180
#	192250
#	206227
#	220842
#	233560
#	247480
#	261100
#
# Disc length: 3649 seconds
#
# Revision: 1
# Processed by: cddbd v1.5.1PL2 Copyright (c) Steve Scherf et al.
# Submitted via: audiograbber 1.83.01
#
DISCID=0a0e3f12
DTITLE=Various Artist - Country-Gold
DYEAR=1997
DGENRE=Country
TTITLE0=Truck Stop - Der wilde, wilde Westen
TTITLE1=Tom Astor - Take it easy, nimm¥s leicht
TTITLE2=Gunter Gabriel - Truck Stop, Tom Astor und ich
TTITLE3=Western Union - Danke
TTITLE4=Linda Feller - Ich weiﬂ genau ws ich will
TTITLE5=Jonny Hill - Hallo Teddyb‰r
TTITLE6=Dagmar - Ich lieb Dich noch in hundert Jahren
TTITLE7=Joe Hodgkins Boss Band - Hilly Billy Western Willy
TTITLE8=Greyhounds - Marlboro Man
TTITLE9=Tom Astor - Junger Adler
TTITLE10=Gunter Gabriel and Linda Feller - Wenn ich nur ein Trucker w‰r
TTITLE11=Truck Stop - Easy Rider
TTITLE12=Larry Schuba and Western Union - Einfach mal einfach nichts tun
TTITLE13=Linda Feller - Schatten aus Gold
TTITLE14=Country Rose and Ralf Pailsen - Hallo Country Rose
TTITLE15=Jonny Hill - Suchst Du Gold
TTITLE16=Frank Baum and Country Green - Hallo Nachbar, guten Morgen
TTITLE17=Mike Herman - Irgendwann, irgendwo und irgendwie
EXTD=18 Trucker- und Country-Hits
EXTT0=
EXTT1=
EXTT2=
EXTT3=
EXTT4=
EXTT5=
EXTT6=
EXTT7=
EXTT8=
EXTT9=
EXTT10=
EXTT11=
EXTT12=
EXTT13=
EXTT14=
EXTT15=
EXTT16=
EXTT17=
PLAYORDER=
